# xmcd
#
# Track frame offsets:
#	150
#	16532
#	33642
#	50787
#	67207
#	83935
#	98647
#	116000
#	134572
#	152815
#	170315
#	187997
#	209945
#	225670
#	239132
#	264840
#	279470
#	294252
#	309930
#	328127
#
# Disc length: 4565
#
# Revision: 1
# Processed by: cddbd v1.5.1PL0 Copyright (c) Steve Scherf et al.
# Submitted via: CDex 1.51
# Normalized: r0:DSETVAR1,TDELIM( - )
#
DISCID=2711d314
DTITLE=Various Artist - CLUB DANCE 歌謡 REMIX VOL.2
DYEAR=2002
DGENRE=Lo-Fi
TTITLE0=シュックア - COOL
TTITLE1=彼女の魅力 - ホン・ギョンミン
TTITLE2=SEXY - FRENCHAFFAIR
TTITLE3=タンカル - キム・ヒョンジョン
TTITLE4=変身 - SHARP
TTITLE5=DOO BE DOO - DJ PETER PROJECT
TTITLE6=LANGDEBYU - ヤン・ヘスン
TTITLE7=LALLALLA - CLON
TTITLE8=四季 - 亀
TTITLE9=RUSH - リサン
TTITLE10=偶然 - BABY V.O.X
TTITLE11=CAN'T GET YOU OUT OF MY HEAD - S.H.E.
TTITLE12=MWOBNIKKA - シム・テユン
TTITLE13=NOW - ウン・ジウォン
TTITLE14=LAST TRAIN TO LONDON - MEANSTREET BOYS
TTITLE15=コンガ - カントリーココ
TTITLE16=グッセオラ私の青春 - ハジマン
TTITLE17=IT'S RAINING MAN - THE WEATHER GIRLS
TTITLE18=冬話 - DJ DOC
TTITLE19=ジファザ - T
EXTD=YEAR: 2002
EXTT0=
EXTT1=
EXTT2=
EXTT3=
EXTT4=
EXTT5=
EXTT6=
EXTT7=
EXTT8=
EXTT9=
EXTT10=
EXTT11=
EXTT12=
EXTT13=
EXTT14=
EXTT15=
EXTT16=
EXTT17=
EXTT18=
EXTT19=
PLAYORDER=
